<svg xmlns="http://www.w3.org/2000/svg" viewBox="0 0 64 64">
  <defs>
    <linearGradient id="canvas" x1="7" y1="5" x2="58" y2="61" gradientUnits="userSpaceOnUse">
      <stop stop-color="#83E6AD"/>
      <stop offset=".44" stop-color="#1AA477"/>
      <stop offset="1" stop-color="#4C6FFF"/>
    </linearGradient>
    <linearGradient id="orbit" x1="10" y1="15" x2="53" y2="52" gradientUnits="userSpaceOnUse">
      <stop stop-color="#FFF"/>
      <stop offset="1" stop-color="#D8D1FF"/>
    </linearGradient>
    <radialGradient id="pearl" cx="0" cy="0" r="1" gradientTransform="translate(50 15) rotate(132) scale(10)">
      <stop stop-color="#FFF"/>
      <stop offset=".48" stop-color="#FFF0C8"/>
      <stop offset="1" stop-color="#FF913D"/>
    </radialGradient>
    <filter id="glow" x="-60%" y="-60%" width="220%" height="220%"><feGaussianBlur stdDeviation="2.4"/></filter>
  </defs>
  <rect x="3" y="3" width="58" height="58" rx="18" fill="url(#canvas)"/>
  <path d="M47.8 14.8A23 23 0 1 0 49.4 47" fill="none" stroke="#091F66" stroke-opacity=".18" stroke-width="9" stroke-linecap="round"/>
  <path d="M47.8 14.8A23 23 0 1 0 49.4 47" fill="none" stroke="url(#orbit)" stroke-width="5.4" stroke-linecap="round"/>
  <path d="m20.8 45.5 10-25.8a1.8 1.8 0 0 1 3.4 0l10 25.8M25.8 34.8h13.4" fill="none" stroke="#FFF" stroke-width="5.2" stroke-linecap="round" stroke-linejoin="round"/>
  <path d="m28 35 3.6 3.6 7-7.4" fill="none" stroke="#B8E7FF" stroke-width="2.2" stroke-linecap="round" stroke-linejoin="round"/>
  <path d="M48 10C43 5 43 1 45 0c5 2 7 5 6 10Zm3 1c2-6 6-8 10-7-1 5-4 8-10 9Z" fill="#D9FFD8"/>
  <circle cx="49.4" cy="14.6" r="8.2" fill="#FFB05C" opacity=".5" filter="url(#glow)"/>
  <circle cx="49.4" cy="14.6" r="6.8" fill="url(#pearl)" stroke="#FFF" stroke-width="1.3"/>
  <circle cx="47.2" cy="12.5" r="1.7" fill="#FFF" opacity=".92"/>
</svg>
