<svg xmlns="http://www.w3.org/2000/svg" viewBox="0 0 64 64">
  <defs>
    <linearGradient id="canvas" x1="7" y1="5" x2="58" y2="61" gradientUnits="userSpaceOnUse">
      <stop stop-color="#FFF4E8"/>
      <stop offset="1" stop-color="#FFDFC2"/>
    </linearGradient>
    <radialGradient id="tomato" cx="0" cy="0" r="1" gradientTransform="translate(24 22) rotate(60) scale(24 26)">
      <stop stop-color="#FF7A5C"/>
      <stop offset=".5" stop-color="#F1402C"/>
      <stop offset="1" stop-color="#C21E1E"/>
    </radialGradient>
    <linearGradient id="leaf" x1="20" y1="6" x2="46" y2="18" gradientUnits="userSpaceOnUse">
      <stop stop-color="#9BE888"/>
      <stop offset="1" stop-color="#3E9A4B"/>
    </linearGradient>
  </defs>
  <rect x="3" y="3" width="58" height="58" rx="18" fill="url(#canvas)"/>
  <path d="M32 22c11.5 0 19 8.2 19 18.5S44.5 58 32 58 13 48.7 13 40.5 20.5 22 32 22Z" fill="url(#tomato)"/>
  <ellipse cx="22.5" cy="30" rx="5.6" ry="3.4" fill="#FFF" opacity=".35" transform="rotate(-25 22.5 30)"/>
  <path d="M32 23c-1.6-4.4-5.4-7.4-10-7.6.9 4.3 3.4 6.9 7 7.9-3.6-1-7.4-.3-9.8 2.4 3.6 2 7.6 1.4 10.2-1.2M32 23c1.6-4.4 5.4-7.4 10-7.6-.9 4.3-3.4 6.9-7 7.9 3.6-1 7.4-.3 9.8 2.4-3.6 2-7.6 1.4-10.2-1.2" fill="none" stroke="url(#leaf)" stroke-width="3.4" stroke-linecap="round" stroke-linejoin="round"/>
  <circle cx="32" cy="23.5" r="2.8" fill="#3E9A4B"/>
</svg>
