<svg xmlns="http://www.w3.org/2000/svg" viewBox="0 0 64 64">
  <defs>
    <linearGradient id="paper" x1="6" y1="4" x2="58" y2="60" gradientUnits="userSpaceOnUse">
      <stop stop-color="#FDF6E7"/>
      <stop offset="1" stop-color="#F4E3C6"/>
    </linearGradient>
    <linearGradient id="wash" x1="18" y1="24" x2="48" y2="56" gradientUnits="userSpaceOnUse">
      <stop stop-color="#FF6B4A"/>
      <stop offset="1" stop-color="#D92B22"/>
    </linearGradient>
  </defs>
  <rect x="3" y="3" width="58" height="58" rx="18" fill="url(#paper)"/>
  <path d="M32 21.5c8.6-.8 15.9 5.4 16.6 14.2.7 8.9-6 16.9-15.4 17.6-9.4.7-16.9-5.7-17.7-14.5-.8-8.7 6.8-16.4 16.5-17.3Z" fill="url(#wash)"/>
  <path d="M20 44c2.5 5.4 7.6 8.8 13.9 8.4 4.6-.3 8.5-2.5 11-5.8-3.4 6-9.9 8.3-15.7 7.4C24.6 53.3 21 49.3 20 44Z" fill="#B01D17" opacity=".55"/>
  <path d="M31.8 22.2c9-.9 16.2 5.3 16.9 13.6.8 8.6-5.8 16.5-15 17.2-9.1.7-16.4-5.5-17.2-14-.8-8.4 6.4-15.9 15.3-16.8" fill="none" stroke="#2E2420" stroke-width="2.2" stroke-linecap="round"/>
  <path d="M25.5 26.5c-2.6 3.2-3.8 7.4-3.3 11.6M40.5 25.8c3 3 4.6 7 4.5 11.4" fill="none" stroke="#2E2420" stroke-width="1.5" stroke-linecap="round" opacity=".55"/>
  <path d="m22.5 45.5 3.4-3.6M25.5 48.6l3.8-4M29 51l3.6-3.8" stroke="#7A1610" stroke-width="1.3" stroke-linecap="round" opacity=".6"/>
  <path d="M27 28.5c1.8-1.6 4.2-2.6 6.8-2.8" fill="none" stroke="#FFE7D2" stroke-width="2.4" stroke-linecap="round" opacity=".9"/>
  <path d="M32 22.6c-1.8-3.2-5.2-4.9-9-4.4 1.6 3.2 4.6 5 8.2 4.9-3 .4-5.4 2-6.7 4.6 3.4.9 6.5-.3 8.3-3M32 22.6c1.8-3.2 5.2-4.9 9-4.4-1.6 3.2-4.6 5-8.2 4.9 3 .4 5.4 2 6.7 4.6-3.4.9-6.5-.3-8.3-3" fill="#7CC26A" stroke="#35682F" stroke-width="1.7" stroke-linecap="round" stroke-linejoin="round"/>
  <path d="M32 21.5c-.3-3 .8-5.6 3.2-7.4 1 2 .6 4.3-1.4 6.4" fill="none" stroke="#35682F" stroke-width="2" stroke-linecap="round"/>
</svg>
